<svg width="18" height="14" viewBox="0 0 18 14" fill="none" xmlns="http://www.w3.org/2000/svg">
<path d="M17.364 7.70701C17.5514 7.51948 17.6567 7.26517 17.6567 7.00001C17.6567 6.73484 17.5514 6.48054 17.364 6.29301L11.707 0.636007C11.6147 0.540497 11.5044 0.464315 11.3824 0.411906C11.2604 0.359497 11.1291 0.33191 10.9964 0.330756C10.8636 0.329603 10.7319 0.354905 10.609 0.405185C10.4861 0.455466 10.3744 0.529719 10.2806 0.623612C10.1867 0.717505 10.1124 0.829156 10.0621 0.952053C10.0118 1.07495 9.98655 1.20663 9.9877 1.33941C9.98885 1.47219 10.0164 1.60341 10.0688 1.72541C10.1213 1.84742 10.1974 1.95776 10.293 2.05001L14.243 6.00001L0.999952 6.00001C0.734736 6.00001 0.480381 6.10536 0.292845 6.2929C0.105308 6.48044 -4.79636e-05 6.73479 -4.79752e-05 7.00001C-4.79868e-05 7.26522 0.105308 7.51958 0.292844 7.70711C0.480381 7.89465 0.734735 8.00001 0.999952 8.00001L14.243 8.00001L10.293 11.95C10.1108 12.1386 10.01 12.3912 10.0123 12.6534C10.0146 12.9156 10.1197 13.1664 10.3051 13.3518C10.4905 13.5372 10.7414 13.6424 11.0036 13.6447C11.2657 13.647 11.5183 13.5462 11.707 13.364L17.364 7.70701Z" fill="white"/>
</svg>
